<svg width="496.777" height="496.778" xmlns="http://www.w3.org/2000/svg">
 <defs>
  <filter id="svg_29_blur" x="-50%" y="-50%" width="200%" height="200%">
   <feGaussianBlur stdDeviation="0"/>
  </filter>
 </defs>
 <g>
  <title>background</title>
  <rect x="-1" y="-1" width="498.777" height="498.778" id="canvas_background" fill="none"/>
 </g>
 <g>
  <title>Layer 1</title>
  <g id="svg_1">
   <path stroke="#ffc107" fill="#ffc107" d="m496.777,496.52111l-13.203,-37.185l-114.898,-114.899c8.672,-14.763 16.213,-30.779 22.539,-47.992c16.408,-44.655 24.729,-97.457 24.729,-156.938l0,-15.304l-15.305,0c-1.102,0 -2.186,-0.023 -3.273,-0.041l34.902,-34.904c1.172,0.896 2.297,1.878 3.367,2.951c10.375,10.372 12.498,25.867 6.387,38.347c12.354,5.694 27.467,3.454 37.648,-6.727c10.18,-10.183 12.42,-25.292 6.725,-37.646c-12.479,6.111 -27.973,3.987 -38.346,-6.388c-1.07,-1.072 -2.053,-2.195 -2.949,-3.366l27.252,-27.255c7.689,5.341 21.105,0.592 23.48,-1.784c3.674,-3.674 -3.691,-16.99 -16.445,-29.741c-12.754,-12.757 -26.07,-20.12 -29.742,-16.448c-2.375,2.378 -7.125,15.792 -1.785,23.482l-27.252,27.251c-1.172,-0.896 -2.299,-1.878 -3.371,-2.947c-10.373,-10.376 -12.496,-25.867 -6.385,-38.348c-12.352,-5.694 -27.467,-3.455 -37.645,6.726c-10.182,10.183 -12.422,25.294 -6.727,37.647c12.479,-6.112 27.971,-3.988 38.344,6.384c1.072,1.071 2.057,2.2 2.949,3.37l-53.596,53.594c-72.855,-19.024 -105.792,-78.036 -105.792,-78.036s-32.188,59.185 -105.703,78.121l-53.678,-53.679c0.894,-1.17 1.877,-2.299 2.949,-3.37c10.373,-10.372 25.864,-12.496 38.344,-6.384c5.696,-12.354 3.456,-27.465 -6.726,-37.647c-10.178,-10.181 -25.293,-12.42 -37.646,-6.726c6.113,12.48 3.989,27.972 -6.385,38.348c-1.071,1.069 -2.198,2.052 -3.37,2.947l-27.251,-27.251c5.338,-7.69 0.59,-21.104 -1.786,-23.482c-3.673,-3.672 -16.987,3.691 -29.742,16.447c-12.755,12.751 -20.118,26.068 -16.446,29.742c2.377,2.376 15.793,7.125 23.481,1.784l27.252,27.255c-0.896,1.171 -1.879,2.294 -2.949,3.366c-10.374,10.375 -25.866,12.499 -38.346,6.388c-5.696,12.354 -3.455,27.464 6.726,37.646c10.181,10.181 25.294,12.421 37.647,6.727c-6.111,-12.479 -3.988,-27.975 6.387,-38.347c1.07,-1.073 2.195,-2.056 3.367,-2.951l34.904,34.904c-1.089,0.018 -2.174,0.041 -3.275,0.041l-15.304,0l0,15.304c0,59.48 8.319,112.282 24.728,156.938c6.325,17.213 13.865,33.229 22.538,47.992l-114.898,114.899l-13.203,37.185l37.696,-12.688l110.278,-110.278c4.201,5.304 8.583,10.388 13.152,15.233c40.774,43.255 82.084,53.161 83.823,53.563l3.437,0.79l3.437,-0.79c1.737,-0.402 43.051,-10.31 83.825,-53.563c4.568,-4.849 8.951,-9.934 13.152,-15.233l110.28,110.278l37.697,12.688zm-183.4,-128.729c-27.588,29.264 -55.354,40.464 -64.99,43.682c-9.636,-3.218 -37.401,-14.418 -64.987,-43.682c-20.673,-21.931 -37.195,-49.487 -49.106,-81.903c-13.81,-37.584 -21.419,-81.79 -22.666,-131.589c66.949,-4.482 111.436,-37.471 136.926,-64.252c25.653,26.715 70.26,59.717 136.598,64.241c-1.248,49.8 -8.855,94.014 -22.668,131.599c-11.912,32.416 -28.433,59.972 -49.107,81.904z" id="svg_2"/>
  </g>
  <g id="svg_3"/>
  <g id="svg_4"/>
  <g id="svg_5"/>
  <g id="svg_6"/>
  <g id="svg_7"/>
  <g id="svg_8"/>
  <g id="svg_9"/>
  <g id="svg_10"/>
  <g id="svg_11"/>
  <g id="svg_12"/>
  <g id="svg_13"/>
  <g id="svg_14"/>
  <g id="svg_15"/>
  <g id="svg_16"/>
  <g id="svg_17"/>
  <g id="svg_29" stroke="null" filter="url(#svg_29_blur)">
   <path fill="#ffc107" d="m217.97065,233.33113a2.20731,2.20731 0 0 0 0.39261,-0.03619a44.30683,44.30683 0 0 1 7.93799,-0.71575a2.17112,2.17112 0 0 0 0,-4.34225a48.68852,48.68852 0 0 0 -8.71851,0.78631a2.17112,2.17112 0 0 0 0.38791,4.30606l0,0.00181l0,0.00001z" id="svg_22" stroke-dasharray="2,2" stroke="#ffc107" stroke-width="0"/>
   <path fill="#ffc107" d="m184.59217,273.45927a3.89753,3.89753 0 1 0 3.9044,3.89717a3.90513,3.90513 0 0 0 -3.9044,-3.89717zm0,4.34225a0.44508,0.44508 0 1 1 0.43784,-0.44508a0.44219,0.44219 0 0 1 -0.43784,0.44508z" id="svg_23" stroke-dasharray="2,2" stroke="#ffc107" stroke-width="0"/>
   <path fill="#ffc107" d="m201.54249,277.35644a3.9044,3.9044 0 1 0 3.9044,-3.89717a3.90549,3.90549 0 0 0 -3.9044,3.89717zm3.9044,-0.44472a0.44508,0.44508 0 1 1 -0.43784,0.44472a0.44182,0.44182 0 0 1 0.43784,-0.44472z" id="svg_24" stroke-dasharray="2,2" stroke="#ffc107" stroke-width="0"/>
   <path fill="#ffc107" d="m226.30125,281.25397a3.89753,3.89753 0 1 0 -3.9044,-3.89753a3.90549,3.90549 0 0 0 3.9044,3.89753zm0,-4.34225a0.44508,0.44508 0 1 1 -0.43784,0.44472a0.44182,0.44182 0 0 1 0.43784,-0.44472z" id="svg_25" stroke-dasharray="2,2" stroke="#ffc107" stroke-width="0"/>
   <path fill="#ffc107" d="m247.15597,281.25397a3.89753,3.89753 0 1 0 -3.9044,-3.89753a3.90549,3.90549 0 0 0 3.9044,3.89753zm0,-4.34225a0.44508,0.44508 0 1 1 -0.43784,0.44472a0.44182,0.44182 0 0 1 0.43784,-0.44472z" id="svg_26" stroke-dasharray="2,2" stroke="#ffc107" stroke-width="0"/>
   <path fill="#ffc107" d="m268.01033,281.25397a3.89753,3.89753 0 1 0 -3.9044,-3.89753a3.90549,3.90549 0 0 0 3.9044,3.89753zm0,-4.34225a0.44508,0.44508 0 1 1 -0.43784,0.44472a0.44182,0.44182 0 0 1 0.43784,-0.44472z" id="svg_27" stroke-dasharray="2,2" stroke="#ffc107" stroke-width="0"/>
   <path fill="#ffc107" d="m326.89154,281.92448a7.62462,7.62462 0 0 0 -7.11803,5.18283l-3.90404,0a6.28395,6.28395 0 0 1 -5.53057,-3.28491a10.6262,10.6262 0 0 0 -9.35899,-5.5559l-9.15201,0.04776l0,-6.76667l0.33616,0a10.10875,10.10875 0 0 0 9.3456,-6.2181a5.77736,5.77736 0 0 1 5.34024,-3.55196l2.05533,0a7.26204,7.26204 0 0 0 7.14842,5.30369a7.45419,7.45419 0 1 0 0,-14.91091a7.6713,7.6713 0 0 0 -7.14842,5.26497l-2.05533,0a10.10947,10.10947 0 0 0 -9.34596,6.2181a5.777,5.777 0 0 1 -5.33988,3.55196l-0.35498,0a5.39958,5.39958 0 0 0 -5.44518,-5.06595l-0.53337,0a60.39738,60.39738 0 0 0 -3.99776,-11.57932l17.56366,0a8.19744,8.19744 0 0 0 7.94197,-6.41205a3.82986,3.82986 0 0 1 3.70032,-2.99615l10.51258,0a7.25227,7.25227 0 0 0 7.14951,5.29247a7.45419,7.45419 0 1 0 0,-14.90548a7.676,7.676 0 0 0 -7.14951,5.27076l-10.51258,0a8.1978,8.1978 0 0 0 -7.94197,6.41205a3.82986,3.82986 0 0 1 -3.69959,2.99615l-19.78436,0a58.62357,58.62357 0 0 0 -6.96315,-9.80226l0,-30.42865c0,-25.50346 -20.71468,-46.25215 -46.31729,-46.25215s-46.31729,20.7487 -46.31729,46.25215l0,30.42684a59.95918,59.95918 0 0 0 -13.21273,25.72563l-0.62926,0a5.69811,5.69811 0 0 0 -5.69811,5.69811l0,18.9995a5.71476,5.71476 0 0 0 5.69811,5.69811l1.19412,0c7.36192,26.27746 31.3919,44.50802 58.93404,44.50802a61.16741,61.16741 0 0 0 54.36926,-32.9287l11.60791,0a7.49761,7.49761 0 0 1 7.18461,5.31925a11.8641,11.8641 0 0 0 11.35208,8.43119l4.15806,0c0.93467,2.89483 3.78463,5.28994 7.14878,5.28994a7.45419,7.45419 0 1 0 0,-14.90548a7.6789,7.6789 0 0 0 -7.14878,5.2733l-4.15806,0a7.49761,7.49761 0 0 1 -7.18642,-5.31925a11.86446,11.86446 0 0 0 -11.35027,-8.43119l-9.56922,0a60.87467,60.87467 0 0 0 2.5261,-7.23708l1.19412,0a5.39886,5.39886 0 0 0 5.3985,-5.3985l0,-4.48011l9.16359,-0.04957a6.28432,6.28432 0 0 1 5.53057,3.28527a10.62294,10.62294 0 0 0 9.34741,5.55735l3.84506,0a7.30185,7.30185 0 0 0 7.17701,5.3804a7.45419,7.45419 0 1 0 0,-14.90548l-0.00001,0.00002zm-10.83607,-25.38441a3.11194,3.11194 0 1 1 -3.13184,3.11194a3.12533,3.12533 0 0 1 3.13004,-3.11194l0.00181,0l-0.00001,0zm12.64534,-20.64774a3.11194,3.11194 0 1 1 -3.13184,3.11194a3.12497,3.12497 0 0 1 3.13184,-3.11194zm-6.57886,76.70758a3.11194,3.11194 0 1 1 -3.13221,3.11194a3.12497,3.12497 0 0 1 3.13221,-3.11194zm-137.76462,-106.61299a41.97504,41.97504 0 0 1 83.95008,0l0,25.88015c-1.08556,-0.96724 -2.08934,-1.90299 -3.18178,-2.80075a55.12445,55.12445 0 0 0 -5.14086,-3.78101l0,-19.29839a33.6524,33.6524 0 1 0 -67.30481,0l0,19.29803a58.17994,58.17994 0 0 0 -5.20165,3.83167c-1.07109,0.88256 -2.39728,1.80058 -3.12099,2.75009l0,-25.87978l0.00001,-0.00001zm71.2852,0l0,16.68906a61.23037,61.23037 0 0 0 -29.31016,-7.52656c-10.33527,0 -20.62567,2.62706 -29.31016,7.52439l0,-16.68689a29.31016,29.31016 0 1 1 58.62032,0zm-29.34128,126.71397c-25.17706,0 -47.19587,-16.39198 -54.40979,-40.16577l108.81957,0a56.74519,56.74519 0 0 1 -54.40979,40.16577l0.00001,0zm61.18441,-45.59032a1.0823,1.0823 0 0 1 -1.0823,1.0823l-120.23027,0a1.35985,1.35985 0 0 1 -1.35587,-1.35587l0,-19.23362a1.12175,1.12175 0 0 1 1.12175,-1.12175l23.84617,0a2.17112,2.17112 0 0 0 0,-4.34225l-4.88503,0a43.9457,43.9457 0 0 1 24.38895,-26.1396a2.17112,2.17112 0 1 0 -1.68588,-4.00174a48.29373,48.29373 0 0 0 -27.26894,30.14134l-9.09592,0a56.88523,56.88523 0 0 1 110.16531,0l-76.42063,0a2.17112,2.17112 0 0 0 0,4.34225l81.44642,0a1.05625,1.05625 0 0 1 1.05625,1.05625l0,19.57267l-0.00001,0.00002zm39.40588,5.37461a3.11194,3.11194 0 1 1 3.13184,-3.11194a3.12497,3.12497 0 0 1 -3.13184,3.11194z" id="svg_28" stroke-dasharray="2,2" stroke="#ffc107" stroke-width="0"/>
  </g>
 </g>
</svg>